<?xml version="1.0" encoding="UTF-8" standalone="no"?><svg xmlns="http://www.w3.org/2000/svg" xmlns:xlink="http://www.w3.org/1999/xlink" contentScriptType="application/ecmascript" contentStyleType="text/css" height="911px" preserveAspectRatio="none" style="width:1389px;height:911px;" version="1.1" viewBox="0 0 1389 911" width="1389px" zoomAndPan="magnify"><defs/><g><text fill="#000000" font-family="Noto Sans CJK JP" font-size="18" lengthAdjust="spacingAndGlyphs" textLength="472" x="462" y="20.8799">Go2 ネットワーク配置 — 内部(eth0) / 外部(wlan0) の2系統</text><!--MD5=[d5df8af3500dd8700a9932c5027fb5b2]
cluster robot--><polygon fill="#FFFFFF" points="30,227.0638,40,217.0638,839,217.0638,839,595.0638,829,605.0638,30,605.0638,30,227.0638" style="stroke: #000000; stroke-width: 1.5;"/><line style="stroke: #000000; stroke-width: 1.5;" x1="829" x2="838" y1="227.0638" y2="218.0638"/><line style="stroke: #000000; stroke-width: 1.5;" x1="30" x2="829" y1="227.0638" y2="227.0638"/><line style="stroke: #000000; stroke-width: 1.5;" x1="829" x2="829" y1="227.0638" y2="605.0638"/><text fill="#000000" font-family="Noto Sans CJK JP" font-size="14" font-weight="bold" lengthAdjust="spacingAndGlyphs" textLength="146" x="357.5" y="246.3038">Go2 ロボット (Jetson)</text><text fill="#000000" font-family="Noto Sans CJK JP" font-size="14" font-weight="bold" lengthAdjust="spacingAndGlyphs" textLength="115" x="373" y="266.5757">ホスト名: Unitree</text><!--MD5=[a78951070628e3fddfc7325e0904b7b3]
entity eth--><ellipse cx="126" cy="342.0638" fill="#FEFECE" rx="8" ry="8" style="stroke: #A80036; stroke-width: 2.0;"/><text fill="#000000" font-family="Noto Sans CJK JP" font-size="14" lengthAdjust="spacingAndGlyphs" textLength="30" x="61.5" y="375.3038">eth0</text><text fill="#000000" font-family="Noto Sans CJK JP" font-size="14" lengthAdjust="spacingAndGlyphs" textLength="129" x="61.5" y="395.5757">192.168.123.161/24</text><!--MD5=[162363f673e316b906fa47750e3cf30b]
entity wlan--><ellipse cx="366" cy="528.0638" fill="#FEFECE" rx="8" ry="8" style="stroke: #A80036; stroke-width: 2.0;"/><text fill="#000000" font-family="Noto Sans CJK JP" font-size="14" lengthAdjust="spacingAndGlyphs" textLength="40" x="313.5" y="561.3038">wlan0</text><text fill="#000000" font-family="Noto Sans CJK JP" font-size="14" lengthAdjust="spacingAndGlyphs" textLength="105" x="313.5" y="581.5757">192.168.0.37/24</text><!--MD5=[4617e0b67180f9dd16cbedc18db55043]
entity dds--><rect fill="#FEFECE" height="80.8157" style="stroke: #A80036; stroke-width: 1.5;" width="200" x="54" y="487.5638"/><rect fill="#FEFECE" height="5" style="stroke: #A80036; stroke-width: 1.5;" width="10" x="49" y="492.5638"/><rect fill="#FEFECE" height="5" style="stroke: #A80036; stroke-width: 1.5;" width="10" x="49" y="558.3796"/><text fill="#000000" font-family="Noto Sans CJK JP" font-size="14" lengthAdjust="spacingAndGlyphs" textLength="180" x="64" y="513.8038">DDS ドメイン (CycloneDDS)</text><text fill="#000000" font-family="Noto Sans CJK JP" font-size="14" lengthAdjust="spacingAndGlyphs" textLength="121" x="64" y="534.0757">rt/* + iceoryx(SHM)</text><text fill="#000000" font-family="Noto Sans CJK JP" font-size="14" lengthAdjust="spacingAndGlyphs" textLength="68" x="64" y="554.3476">bind: eth0</text><!--MD5=[cc6593c7725ff0aed46a7b076a6ae0ec]
entity wb--><rect fill="#FEFECE" height="60.5438" style="stroke: #A80036; stroke-width: 1.5;" width="168" x="417" y="311.5638"/><rect fill="#FEFECE" height="5" style="stroke: #A80036; stroke-width: 1.5;" width="10" x="412" y="316.5638"/><rect fill="#FEFECE" height="5" style="stroke: #A80036; stroke-width: 1.5;" width="10" x="412" y="362.1077"/><text fill="#000000" font-family="Noto Sans CJK JP" font-size="14" lengthAdjust="spacingAndGlyphs" textLength="96" x="427" y="337.8038">webrtc_bridge</text><text fill="#000000" font-family="Noto Sans CJK JP" font-size="14" lengthAdjust="spacingAndGlyphs" textLength="148" x="427" y="358.0757">シグナリング TCP 9991</text><!--MD5=[d03c3d1bbaba3514439887610a749625]
entity otab--><rect fill="#FEFECE" height="60.5438" style="stroke: #A80036; stroke-width: 1.5;" width="149" x="233.5" y="311.5638"/><rect fill="#FEFECE" height="5" style="stroke: #A80036; stroke-width: 1.5;" width="10" x="228.5" y="316.5638"/><rect fill="#FEFECE" height="5" style="stroke: #A80036; stroke-width: 1.5;" width="10" x="228.5" y="362.1077"/><text fill="#000000" font-family="Noto Sans CJK JP" font-size="14" lengthAdjust="spacingAndGlyphs" textLength="70" x="243.5" y="337.8038">ota_boxed</text><text fill="#000000" font-family="Noto Sans CJK JP" font-size="14" lengthAdjust="spacingAndGlyphs" textLength="129" x="243.5" y="358.0757">MQTTSクライアント</text><!--MD5=[356b21d33ae4bbe89a0e9541f25b232f]
entity ble--><rect fill="#FEFECE" height="40.2719" style="stroke: #A80036; stroke-width: 1.5;" width="176" x="620" y="322.0638"/><rect fill="#FEFECE" height="5" style="stroke: #A80036; stroke-width: 1.5;" width="10" x="615" y="327.0638"/><rect fill="#FEFECE" height="5" style="stroke: #A80036; stroke-width: 1.5;" width="10" x="615" y="352.3357"/><text fill="#000000" font-family="Noto Sans CJK JP" font-size="14" lengthAdjust="spacingAndGlyphs" textLength="156" x="630" y="348.3038">btgatt-server (BLE/hci0)</text><!--MD5=[e12fdb32cd01413c3e9353981b686a91]
entity pc--><polygon fill="#E3F2FD" points="45.5,44.0638,55.5,34.0638,206.5,34.0638,206.5,94.6077,196.5,104.6077,45.5,104.6077,45.5,44.0638" style="stroke: #000000; stroke-width: 1.5;"/><line style="stroke: #000000; stroke-width: 1.5;" x1="196.5" x2="205.5" y1="44.0638" y2="35.0638"/><line style="stroke: #000000; stroke-width: 1.5;" x1="45.5" x2="196.5" y1="44.0638" y2="44.0638"/><line style="stroke: #000000; stroke-width: 1.5;" x1="196.5" x2="196.5" y1="44.0638" y2="104.6077"/><text fill="#000000" font-family="Noto Sans CJK JP" font-size="14" lengthAdjust="spacingAndGlyphs" textLength="46" x="60.5" y="70.3038">開発PC</text><text fill="#000000" font-family="Noto Sans CJK JP" font-size="14" lengthAdjust="spacingAndGlyphs" textLength="121" x="60.5" y="90.5757">192.168.123.99/24</text><!--MD5=[27d8026e1e607fa992f9f5b0cd222a86]
entity net--><path d="M326.1341,707.4731 C330.1927,702.5197 334.6222,702.6937 338.4531,707.7533 C340.5863,701.5969 346.3102,700.5198 350.49,705.5516 C353.7504,701.1045 357.591,700.5799 360.8759,705.5244 C363.4777,700.4678 367.2735,700.465 370.9136,704.3601 C374.4746,698.3084 380.0166,699.2967 383.3632,704.5952 C386.5093,699.6761 390.708,699.2064 393.8532,704.5962 C398.9315,699.5135 403.0401,699.0895 406.2412,706.4632 C408.8543,701.3266 412.8929,701.5186 416.1868,705.7395 C421.3192,700.2286 425.2684,700.5018 428.799,707.3713 C432.1494,703.376 435.6942,703.6656 438.3999,708.1052 C447.8843,710.7025 449.9208,717.1364 442.9551,724.3473 C449.4771,732.4242 447.881,738.1151 438.0325,741.4916 C435.9434,747.548 430.5986,748.3587 427.0596,742.8697 C424.8332,748.4489 420.5788,748.8832 417.2432,743.9006 C413.9605,751.3916 409.4672,751.2522 404.4891,745.5379 C402.2891,752.1525 398.5263,751.9873 393.5251,748.6122 C390.0815,754.7369 385.408,753.7311 382.0047,748.571 C378.7372,753.3056 375.2868,752.1504 372.766,747.8108 C368.0399,752.7298 362.1345,752.9615 359.7101,745.4024 C355.7469,749.3242 352.4526,748.8646 349.7296,743.9946 C346.3554,750.4857 340.802,749.9529 337.6985,743.7383 C332.9236,747.4809 329.4171,747.1368 327.385,740.9028 C316.1191,738.2213 314.4233,732.6472 320.5532,723.2379 C316.1346,715.625 316.8976,710.2519 326.1341,707.4731 " fill="#FEFECE" style="stroke: #000000; stroke-width: 1.5;"/><text fill="#000000" font-family="Noto Sans CJK JP" font-size="14" lengthAdjust="spacingAndGlyphs" textLength="98" x="333" y="729.3038">インターネット</text><!--MD5=[9f9b36bbf41f15b24d6cc923a50d407b]
entity ucloud--><polygon fill="#FFF3E0" points="311.5,819.0638,321.5,809.0638,568.5,809.0638,568.5,889.8796,558.5,899.8796,311.5,899.8796,311.5,819.0638" style="stroke: #000000; stroke-width: 1.5;"/><line style="stroke: #000000; stroke-width: 1.5;" x1="558.5" x2="567.5" y1="819.0638" y2="810.0638"/><line style="stroke: #000000; stroke-width: 1.5;" x1="311.5" x2="558.5" y1="819.0638" y2="819.0638"/><line style="stroke: #000000; stroke-width: 1.5;" x1="558.5" x2="558.5" y1="819.0638" y2="899.8796"/><text fill="#000000" font-family="Noto Sans CJK JP" font-size="14" lengthAdjust="spacingAndGlyphs" textLength="105" x="326.5" y="845.3038">Unitreeクラウド</text><text fill="#000000" font-family="Noto Sans CJK JP" font-size="14" lengthAdjust="spacingAndGlyphs" textLength="200" x="326.5" y="865.5757">robot-mqtt.unitree.com:17883</text><text fill="#000000" font-family="Noto Sans CJK JP" font-size="14" lengthAdjust="spacingAndGlyphs" textLength="217" x="326.5" y="885.8476">(実接続 47.237.218.120 / Alibaba)</text><!--MD5=[4541fb81c80c07473fe4b07432ef0971]
entity app--><polygon fill="#E8F5E9" points="863,502.5638,873,492.5638,987,492.5638,987,553.1077,977,563.1077,863,563.1077,863,502.5638" style="stroke: #000000; stroke-width: 1.5;"/><line style="stroke: #000000; stroke-width: 1.5;" x1="977" x2="986" y1="502.5638" y2="493.5638"/><line style="stroke: #000000; stroke-width: 1.5;" x1="863" x2="977" y1="502.5638" y2="502.5638"/><line style="stroke: #000000; stroke-width: 1.5;" x1="977" x2="977" y1="502.5638" y2="563.1077"/><text fill="#000000" font-family="Noto Sans CJK JP" font-size="14" lengthAdjust="spacingAndGlyphs" textLength="84" x="878" y="528.8038">スマホアプリ</text><text fill="#000000" font-family="Noto Sans CJK JP" font-size="14" lengthAdjust="spacingAndGlyphs" textLength="80" x="878" y="549.0757">(Unitree Go)</text><path d="M1022.5,504.0638 L1022.5,551.7119 L1377.5,551.7119 L1377.5,514.0638 L1367.5,504.0638 L1022.5,504.0638 " fill="#FBFB77" style="stroke: #A80036; stroke-width: 1.0;"/><path d="M1367.5,504.0638 L1367.5,514.0638 L1377.5,514.0638 L1367.5,504.0638 " fill="#FBFB77" style="stroke: #A80036; stroke-width: 1.0;"/><text fill="#000000" font-family="Noto Sans CJK JP" font-size="13" lengthAdjust="spacingAndGlyphs" textLength="187" x="1028.5" y="524.1439">wlan1: DOWN  /  4G(4gcm): OFF</text><text fill="#000000" font-family="Noto Sans CJK JP" font-size="13" lengthAdjust="spacingAndGlyphs" textLength="334" x="1028.5" y="542.9679">内部&amp;開発=eth0(DDS固定)  外部=wlan0(クラウド/アプリ)</text><!--MD5=[722ff11b0a8b5967af220c1fa3f95fbd]
link eth to dds--><path d="M127.28,351.4438 C130.87,375.0738 141.26,443.3238 147.97,487.4538 " fill="none" id="eth-dds" style="stroke: #A80036; stroke-width: 1.0;"/><!--MD5=[0e3ea9002c2fbb3bd5a6ce9927782e8d]
link wb to wlan--><path d="M479.31,372.6238 C447.71,415.7038 390.74,493.3438 372.09,518.7638 " fill="none" id="wb-wlan" style="stroke: #A80036; stroke-width: 1.0;"/><!--MD5=[707d6ece05379728526ab802fe81711c]
link otab to wlan--><path d="M317.32,372.6238 C330.9,415.7038 355.37,493.3438 363.38,518.7638 " fill="none" id="otab-wlan" style="stroke: #A80036; stroke-width: 1.0;"/><!--MD5=[d6a380b60af7e4a355c06227cb3928d6]
link pc to eth--><path d="M126,110.4338 C126,172.3838 126,288.6938 126,327.8338 " fill="none" id="pc-eth" style="stroke: #A80036; stroke-width: 1.0;"/><polygon fill="#A80036" points="126,333.0338,130,324.0338,126,328.0338,122,324.0338,126,333.0338" style="stroke: #A80036; stroke-width: 1.0;"/><polygon fill="#A80036" points="126,105.0938,122,114.0938,126,110.0938,130,114.0938,126,105.0938" style="stroke: #A80036; stroke-width: 1.0;"/><text fill="#000000" font-family="Noto Sans CJK JP" font-size="13" font-weight="bold" lengthAdjust="spacingAndGlyphs" textLength="139" x="133" y="151.1439">DDS (UDP 7400/7401)</text><text fill="#000000" font-family="Noto Sans CJK JP" font-size="13" lengthAdjust="spacingAndGlyphs" textLength="142" x="131.5" y="169.9679">rt/lowcmd / rt/lowstate</text><text fill="#000000" font-family="Noto Sans CJK JP" font-size="13" lengthAdjust="spacingAndGlyphs" textLength="151" x="127" y="188.7919">※go2-gait-runner はここ</text><!--MD5=[02bacc738e0e237e2ae7a14c4b9edbed]
link wlan to net--><path d="M364.74,537.2938 C361.67,558.9138 354.63,619.0538 363,668.0638 C364.41,676.3438 366.96,685.0338 369.74,692.9638 " fill="none" id="wlan-&gt;net" style="stroke: #A80036; stroke-width: 1.0;"/><polygon fill="#A80036" points="371.5,697.7938,372.2003,687.9699,369.7993,693.092,364.6773,690.691,371.5,697.7938" style="stroke: #A80036; stroke-width: 1.0;"/><text fill="#000000" font-family="Noto Sans CJK JP" font-size="13" lengthAdjust="spacingAndGlyphs" textLength="79" x="370" y="645.1439">default route</text><text fill="#000000" font-family="Noto Sans CJK JP" font-size="13" lengthAdjust="spacingAndGlyphs" textLength="91" x="364" y="663.9679">GW 192.168.0.1</text><!--MD5=[2c68780edfe4d98889ffcba70edb76d7]
link net to ucloud--><path d="M392.77,748.1138 C399.81,763.8338 409.25,784.9138 417.85,804.1038 " fill="none" id="net-&gt;ucloud" style="stroke: #A80036; stroke-width: 1.0;"/><polygon fill="#A80036" points="420.01,808.9338,419.9644,799.0851,417.9582,804.3742,412.669,802.368,420.01,808.9338" style="stroke: #A80036; stroke-width: 1.0;"/><!--MD5=[5a4878bba5ee379e5e6b20077fa6a54a]
link otab to ucloud--><path d="M351.36,372.6338 C382.48,396.4238 422.4,432.7738 443,475.0638 C495.38,582.5838 471.76,728.5338 453.73,803.9238 " fill="none" id="otab-&gt;ucloud" style="stroke: #A80036; stroke-width: 1.0; stroke-dasharray: 7.0,7.0;"/><polygon fill="#A80036" points="452.56,808.7838,458.575,800.9851,453.7425,803.9257,450.8019,799.0932,452.56,808.7838" style="stroke: #A80036; stroke-width: 1.0;"/><text fill="#000000" font-family="Noto Sans CJK JP" font-size="13" lengthAdjust="spacingAndGlyphs" textLength="100" x="529.5" y="645.1439">MQTTS 常時接続</text><text fill="#000000" font-family="Noto Sans CJK JP" font-size="13" lengthAdjust="spacingAndGlyphs" textLength="207" x="476" y="663.9679">30分毎にバージョン報告 / OTA確認</text><!--MD5=[4c9134da23371b2aa4ebcc8a7ae31880]
reverse link wb to app--><path d="M531.38,376.3338 C554.47,399.4438 588.26,428.8738 624,445.0638 C701.08,479.9738 731.04,450.4838 812,475.0638 C828.94,480.2038 846.63,487.3938 862.84,494.7838 " fill="none" id="wb&lt;-app" style="stroke: #A80036; stroke-width: 1.0;"/><polygon fill="#A80036" points="527.77,372.6838,531.2498,381.8975,531.284,376.2407,536.9408,376.275,527.77,372.6838" style="stroke: #A80036; stroke-width: 1.0;"/><text fill="#000000" font-family="Noto Sans CJK JP" font-size="13" lengthAdjust="spacingAndGlyphs" textLength="209" x="625" y="441.1439">WebRTC (LAN: マルチキャスト探索)</text><!--MD5=[17f9e58beeec5ba1164dd4f0e975a2ab]
link app to net--><path d="M886.93,563.7338 C865.76,582.0438 838.42,604.1538 812,621.0638 C771.99,646.6738 761.27,653.6738 716,668.0638 C627.07,696.3338 519.89,710.3138 451.36,716.8538 " fill="none" id="app-&gt;net" style="stroke: #A80036; stroke-width: 1.0; stroke-dasharray: 7.0,7.0;"/><polygon fill="#A80036" points="446.09,717.3438,455.4266,720.4789,451.0678,716.8732,454.6735,712.5144,446.09,717.3438" style="stroke: #A80036; stroke-width: 1.0;"/><text fill="#000000" font-family="Noto Sans CJK JP" font-size="13" lengthAdjust="spacingAndGlyphs" textLength="156" x="800" y="654.6439">リモート時はクラウド経由</text><!--MD5=[03f25ab99e2d38f4b6c55db90f2dfcc9]
link app to ble--><path d="M901.8,492.3738 C886.65,471.3338 865.55,444.8338 843,425.0638 C827.01,411.0538 780.88,383.9338 746.97,364.7238 " fill="none" id="app-&gt;ble" style="stroke: #A80036; stroke-width: 1.0; stroke-dasharray: 7.0,7.0;"/><polygon fill="#A80036" points="742.48,362.1938,748.3349,370.1135,746.8291,364.6607,752.2819,363.1549,742.48,362.1938" style="stroke: #A80036; stroke-width: 1.0;"/><text fill="#000000" font-family="Noto Sans CJK JP" font-size="13" lengthAdjust="spacingAndGlyphs" textLength="115" x="864" y="441.1439">初期設定 (WiFi投入)</text><!--MD5=[906bd351bfd0bf6018fe080f0728bef6]
link robot to GMN24--><path d="M839.2592,347.179 C839.4393,347.2688 839.6222,347.36 839.8078,347.4526 C840.5502,347.8229 841.3362,348.2149 842.1646,348.628 C848.7914,351.9329 858.1271,356.5885 869.513,362.2663 C892.2847,373.622 923.2569,389.0663 957.1588,405.9713 C1024.9625,439.7813 1104.485,479.4338 1153.56,503.9038 " fill="none" id="robot-GMN24" style="stroke: #A80036; stroke-width: 1.0; stroke-dasharray: 7.0,7.0;"/><!--MD5=[19cb0ada3daf7f195587c915f4c9404a]
@startuml
title Go2 ネットワーク配置 — 内部(eth0) / 外部(wlan0) の2系統
skinparam shadowing false
skinparam defaultFontName "Noto Sans CJK JP"

node "開発PC\n192.168.123.99/24" as pc #E3F2FD

node "Go2 ロボット (Jetson)\nホスト名: Unitree" as robot {
  interface "eth0\n192.168.123.161/24" as eth
  interface "wlan0\n192.168.0.37/24" as wlan
  component "DDS ドメイン (CycloneDDS)\nrt/* + iceoryx(SHM)\nbind: eth0" as dds
  component "webrtc_bridge\nシグナリング TCP 9991" as wb
  component "ota_boxed\nMQTTSクライアント" as otab
  component "btgatt-server (BLE/hci0)" as ble
  eth - - dds
  wb - - wlan
  otab - - wlan
}

cloud "インターネット" as net
node "Unitreeクラウド\nrobot-mqtt.unitree.com:17883\n(実接続 47.237.218.120 / Alibaba)" as ucloud #FFF3E0
node "スマホアプリ\n(Unitree Go)" as app #E8F5E9

pc <-down-> eth : "<b>DDS (UDP 7400/7401)</b>\nrt/lowcmd / rt/lowstate\n※go2-gait-runner はここ"
wlan -down-> net : "default route\nGW 192.168.0.1"
net -down-> ucloud
otab ..> ucloud : "MQTTS 常時接続\n30分毎にバージョン報告 / OTA確認"
app -up-> wb : "WebRTC (LAN: マルチキャスト探索)"
app ..> net : "リモート時はクラウド経由"
app ..> ble : "初期設定 (WiFi投入)"

note bottom of robot
  wlan1: DOWN  /  4G(4gcm): OFF
  内部&開発=eth0(DDS固定)  外部=wlan0(クラウド/アプリ)
end note
@enduml

PlantUML version 1.2020.02(Sun Mar 01 19:22:07 JST 2020)
(GPL source distribution)
Java Runtime: OpenJDK Runtime Environment
JVM: OpenJDK 64-Bit Server VM
Java Version: 11.0.31+11-post-1ubuntu1-22.04.2-Ubuntu
Operating System: Linux
Default Encoding: UTF-8
Language: en
Country: US
--></g></svg>