<?xml version="1.0" encoding="UTF-8" standalone="no"?><svg xmlns="http://www.w3.org/2000/svg" xmlns:xlink="http://www.w3.org/1999/xlink" contentScriptType="application/ecmascript" contentStyleType="text/css" height="542px" preserveAspectRatio="none" style="width:2068px;height:542px;" version="1.1" viewBox="0 0 2068 542" width="2068px" zoomAndPan="magnify"><defs/><g><text fill="#000000" font-family="Noto Sans CJK JP" font-size="18" lengthAdjust="spacingAndGlyphs" textLength="600" x="737" y="20.8799">Go2 データフロー — 知覚 → 制御 → アクチュエータ (全て rt/* DDS + SHM)</text><!--MD5=[200d7cc177ce404b822df68e5d127056]
entity remote--><ellipse cx="386" cy="343.5638" fill="#FEFECE" rx="8" ry="8" style="stroke: #A80036; stroke-width: 1.5;"/><path d="M386,351.5638 L386,378.5638 M373,359.5638 L399,359.5638 M386,378.5638 L373,393.5638 M386,378.5638 L399,393.5638 " fill="none" style="stroke: #A80036; stroke-width: 1.5;"/><text fill="#000000" font-family="Noto Sans CJK JP" font-size="14" lengthAdjust="spacingAndGlyphs" textLength="87" x="342.5" y="412.3038">プロポ(SBUS)</text><!--MD5=[4541fb81c80c07473fe4b07432ef0971]
entity app--><ellipse cx="386" cy="460.5638" fill="#FEFECE" rx="8" ry="8" style="stroke: #A80036; stroke-width: 1.5;"/><path d="M386,468.5638 L386,495.5638 M373,476.5638 L399,476.5638 M386,495.5638 L373,510.5638 M386,495.5638 L399,510.5638 " fill="none" style="stroke: #A80036; stroke-width: 1.5;"/><text fill="#000000" font-family="Noto Sans CJK JP" font-size="14" lengthAdjust="spacingAndGlyphs" textLength="84" x="344" y="529.3038">スマホアプリ</text><!--MD5=[16b14f94c81617c858f4818d7ead573d]
entity devpc--><ellipse cx="1194.5" cy="175.0638" fill="#FEFECE" rx="8" ry="8" style="stroke: #A80036; stroke-width: 1.5;"/><path d="M1194.5,183.0638 L1194.5,210.0638 M1181.5,191.0638 L1207.5,191.0638 M1194.5,210.0638 L1181.5,225.0638 M1194.5,210.0638 L1207.5,225.0638 " fill="none" style="stroke: #A80036; stroke-width: 1.5;"/><text fill="#000000" font-family="Noto Sans CJK JP" font-size="14" lengthAdjust="spacingAndGlyphs" textLength="46" x="1137.5" y="243.8038">開発PC</text><text fill="#000000" font-family="Noto Sans CJK JP" font-size="14" lengthAdjust="spacingAndGlyphs" textLength="114" x="1137.5" y="264.0757">(go2-gait-runner)</text><!--MD5=[3729468cad7920755d8029ec8a005757]
entity hwlidar--><rect fill="#FEFECE" height="40.2719" style="stroke: #000000; stroke-width: 1.5;" width="79" x="6" y="184.0638"/><text fill="#000000" font-family="Noto Sans CJK JP" font-size="14" lengthAdjust="spacingAndGlyphs" textLength="59" x="16" y="210.3038">LiDAR L1</text><!--MD5=[21bdc1f957e78ce8e99d7bb5ff43bd82]
entity hwcam--><rect fill="#FEFECE" height="40.2719" style="stroke: #000000; stroke-width: 1.5;" width="62" x="14.5" y="109.0638"/><text fill="#000000" font-family="Noto Sans CJK JP" font-size="14" lengthAdjust="spacingAndGlyphs" textLength="42" x="24.5" y="135.3038">カメラ</text><!--MD5=[997ae5dec5028526c8231ecb533b303e]
entity hwuwb--><rect fill="#FEFECE" height="40.2719" style="stroke: #000000; stroke-width: 1.5;" width="51" x="20" y="34.0638"/><text fill="#000000" font-family="Noto Sans CJK JP" font-size="14" lengthAdjust="spacingAndGlyphs" textLength="31" x="30" y="60.3038">UWB</text><!--MD5=[8d07c9c87533f8518ce5b8118e5fdea4]
entity hwmcu--><rect fill="#FEFECE" height="40.2719" style="stroke: #000000; stroke-width: 1.5;" width="121" x="325.5" y="259.0638"/><text fill="#000000" font-family="Noto Sans CJK JP" font-size="14" lengthAdjust="spacingAndGlyphs" textLength="101" x="335.5" y="285.3038">IMU/関節 (MCU)</text><!--MD5=[8d6760d652c677979d4712a0f3854444]
entity motor--><rect fill="#FEFECE" height="40.2719" style="stroke: #000000; stroke-width: 1.5;" width="95" x="1789" y="255.0638"/><text fill="#000000" font-family="Noto Sans CJK JP" font-size="14" lengthAdjust="spacingAndGlyphs" textLength="75" x="1799" y="281.3038">モータ MCU</text><!--MD5=[40b713ee61314272eb9b2319730ec280]
entity lidar--><rect fill="#FEFECE" height="40.2719" style="stroke: #A80036; stroke-width: 1.5;" width="106" x="146" y="184.0638"/><rect fill="#FEFECE" height="5" style="stroke: #A80036; stroke-width: 1.5;" width="10" x="141" y="189.0638"/><rect fill="#FEFECE" height="5" style="stroke: #A80036; stroke-width: 1.5;" width="10" x="141" y="214.3357"/><text fill="#000000" font-family="Noto Sans CJK JP" font-size="14" lengthAdjust="spacingAndGlyphs" textLength="86" x="156" y="210.3038">unitree_lidar</text><!--MD5=[5060e1ad06895b69d033b89503fd4aa7]
entity slam--><rect fill="#FEFECE" height="40.2719" style="stroke: #A80036; stroke-width: 1.5;" width="146" x="313" y="184.0638"/><rect fill="#FEFECE" height="5" style="stroke: #A80036; stroke-width: 1.5;" width="10" x="308" y="189.0638"/><rect fill="#FEFECE" height="5" style="stroke: #A80036; stroke-width: 1.5;" width="10" x="308" y="214.3357"/><text fill="#000000" font-family="Noto Sans CJK JP" font-size="14" lengthAdjust="spacingAndGlyphs" textLength="126" x="323" y="210.3038">unitree_lidar_slam</text><!--MD5=[8336e6cf7dbfa3b235d4b3d5d4b64e36]
entity voxel--><rect fill="#FEFECE" height="40.2719" style="stroke: #A80036; stroke-width: 1.5;" width="173" x="520" y="185.0638"/><rect fill="#FEFECE" height="5" style="stroke: #A80036; stroke-width: 1.5;" width="10" x="515" y="190.0638"/><rect fill="#FEFECE" height="5" style="stroke: #A80036; stroke-width: 1.5;" width="10" x="515" y="215.3357"/><text fill="#000000" font-family="Noto Sans CJK JP" font-size="14" lengthAdjust="spacingAndGlyphs" textLength="153" x="530" y="211.3038">voxel_height_mapping</text><!--MD5=[5b35351075a389de79698e7d1f7c0bb6]
entity video--><rect fill="#FEFECE" height="40.2719" style="stroke: #A80036; stroke-width: 1.5;" width="91" x="153.5" y="109.0638"/><rect fill="#FEFECE" height="5" style="stroke: #A80036; stroke-width: 1.5;" width="10" x="148.5" y="114.0638"/><rect fill="#FEFECE" height="5" style="stroke: #A80036; stroke-width: 1.5;" width="10" x="148.5" y="139.3357"/><text fill="#000000" font-family="Noto Sans CJK JP" font-size="14" lengthAdjust="spacingAndGlyphs" textLength="71" x="163.5" y="135.3038">video_hub</text><!--MD5=[647693cd6dca0a2d49aed980c39c3a7e]
entity utrack--><rect fill="#FEFECE" height="40.2719" style="stroke: #A80036; stroke-width: 1.5;" width="62" x="168" y="34.0638"/><rect fill="#FEFECE" height="5" style="stroke: #A80036; stroke-width: 1.5;" width="10" x="163" y="39.0638"/><rect fill="#FEFECE" height="5" style="stroke: #A80036; stroke-width: 1.5;" width="10" x="163" y="64.3357"/><text fill="#000000" font-family="Noto Sans CJK JP" font-size="14" lengthAdjust="spacingAndGlyphs" textLength="42" x="178" y="60.3038">utrack</text><!--MD5=[649ed5df2fb94ab59465f112e376ae8e]
entity obs--><rect fill="#FEFECE" height="40.2719" style="stroke: #A80036; stroke-width: 1.5;" width="127" x="754" y="191.0638"/><rect fill="#FEFECE" height="5" style="stroke: #A80036; stroke-width: 1.5;" width="10" x="749" y="196.0638"/><rect fill="#FEFECE" height="5" style="stroke: #A80036; stroke-width: 1.5;" width="10" x="749" y="221.3357"/><text fill="#000000" font-family="Noto Sans CJK JP" font-size="14" lengthAdjust="spacingAndGlyphs" textLength="107" x="764" y="217.3038">obstacles_avoid</text><!--MD5=[27d67f015201caba8ffc78f915fa0a2b]
entity rstate--><rect fill="#FEFECE" height="40.2719" style="stroke: #A80036; stroke-width: 1.5;" width="96" x="769.5" y="271.0638"/><rect fill="#FEFECE" height="5" style="stroke: #A80036; stroke-width: 1.5;" width="10" x="764.5" y="276.0638"/><rect fill="#FEFECE" height="5" style="stroke: #A80036; stroke-width: 1.5;" width="10" x="764.5" y="301.3357"/><text fill="#000000" font-family="Noto Sans CJK JP" font-size="14" lengthAdjust="spacingAndGlyphs" textLength="76" x="779.5" y="297.3038">robot_state</text><!--MD5=[e22227688f07225a183a8f2a1aa0a9c0]
entity sbus--><rect fill="#FEFECE" height="40.2719" style="stroke: #A80036; stroke-width: 1.5;" width="107" x="553" y="355.0638"/><rect fill="#FEFECE" height="5" style="stroke: #A80036; stroke-width: 1.5;" width="10" x="548" y="360.0638"/><rect fill="#FEFECE" height="5" style="stroke: #A80036; stroke-width: 1.5;" width="10" x="548" y="385.3357"/><text fill="#000000" font-family="Noto Sans CJK JP" font-size="14" lengthAdjust="spacingAndGlyphs" textLength="87" x="563" y="381.3038">sbus_handle</text><!--MD5=[26760617d19e52df1d0ba3efd3c7e2b1]
entity webrtc--><rect fill="#FEFECE" height="40.2719" style="stroke: #A80036; stroke-width: 1.5;" width="116" x="548.5" y="451.0638"/><rect fill="#FEFECE" height="5" style="stroke: #A80036; stroke-width: 1.5;" width="10" x="543.5" y="456.0638"/><rect fill="#FEFECE" height="5" style="stroke: #A80036; stroke-width: 1.5;" width="10" x="543.5" y="481.3357"/><text fill="#000000" font-family="Noto Sans CJK JP" font-size="14" lengthAdjust="spacingAndGlyphs" textLength="96" x="558.5" y="477.3038">webrtc_bridge</text><!--MD5=[167a543968fbe72043da5877cd789402]
entity msw--><rect fill="#FEFECE" height="40.2719" style="stroke: #A80036; stroke-width: 1.5;" width="131" x="942" y="314.0638"/><rect fill="#FEFECE" height="5" style="stroke: #A80036; stroke-width: 1.5;" width="10" x="937" y="319.0638"/><rect fill="#FEFECE" height="5" style="stroke: #A80036; stroke-width: 1.5;" width="10" x="937" y="344.3357"/><text fill="#000000" font-family="Noto Sans CJK JP" font-size="14" lengthAdjust="spacingAndGlyphs" textLength="111" x="952" y="340.3038">motion_switcher</text><!--MD5=[55aedfa6890a44d92f891bc70a06c7e7]
entity sport--><rect fill="#FEFECE" height="60.5438" style="stroke: #A80036; stroke-width: 1.5;" width="121" x="1134" y="303.5638"/><rect fill="#FEFECE" height="5" style="stroke: #A80036; stroke-width: 1.5;" width="10" x="1129" y="308.5638"/><rect fill="#FEFECE" height="5" style="stroke: #A80036; stroke-width: 1.5;" width="10" x="1129" y="354.1077"/><text fill="#000000" font-family="Noto Sans CJK JP" font-size="14" lengthAdjust="spacingAndGlyphs" textLength="80" x="1144" y="329.8038">sport_mode</text><text fill="#000000" font-family="Noto Sans CJK JP" font-size="14" lengthAdjust="spacingAndGlyphs" textLength="101" x="1144" y="350.0757">(Legged_sport)</text><!--MD5=[812bb40bdb53c83c311438e13f540a2d]
entity lowstate--><rect fill="#FFFDE7" height="40.2719" style="stroke: #000000; stroke-width: 1.5;" width="91" x="561" y="260.0638"/><text fill="#000000" font-family="Noto Sans CJK JP" font-size="14" lengthAdjust="spacingAndGlyphs" textLength="71" x="571" y="286.3038">rt/lowstate</text><!--MD5=[834bbdaa918b2552463a42bfe0447643]
entity apisport--><rect fill="#FFFDE7" height="40.2719" style="stroke: #000000; stroke-width: 1.5;" width="107" x="764" y="351.0638"/><text fill="#000000" font-family="Noto Sans CJK JP" font-size="14" lengthAdjust="spacingAndGlyphs" textLength="87" x="774" y="377.3038">rt/api/sport/*</text><!--MD5=[e2307af040e3f87d22824e7603ca28ec]
entity api--><rect fill="#FFFDE7" height="40.2719" style="stroke: #000000; stroke-width: 1.5;" width="68" x="783.5" y="426.0638"/><text fill="#000000" font-family="Noto Sans CJK JP" font-size="14" lengthAdjust="spacingAndGlyphs" textLength="48" x="793.5" y="452.3038">rt/api/*</text><!--MD5=[04232cec28e332a199ea3d2c46f455a8]
entity lowcmd--><rect fill="#FFFDE7" height="40.2719" style="stroke: #000000; stroke-width: 1.5;" width="87" x="1469" y="255.0638"/><text fill="#000000" font-family="Noto Sans CJK JP" font-size="14" lengthAdjust="spacingAndGlyphs" textLength="67" x="1479" y="281.3038">rt/lowcmd</text><path d="M1617,330.0638 L1617,396.5359 A0,0 0 0 0 1617,396.5359 L2056,396.5359 A0,0 0 0 0 2056,396.5359 L2056,340.0638 L2046,330.0638 L1840.5,330.0638 L1836.5,295.1338 L1832.5,330.0638 L1617,330.0638 A0,0 0 0 0 1617,330.0638 " fill="#FBFB77" style="stroke: #A80036; stroke-width: 1.0;"/><path d="M2046,330.0638 L2046,340.0638 L2056,340.0638 L2046,330.0638 " fill="#FBFB77" style="stroke: #A80036; stroke-width: 1.0;"/><text fill="#000000" font-family="Noto Sans CJK JP" font-size="13" lengthAdjust="spacingAndGlyphs" textLength="310" x="1623" y="350.1439">結合は全て CycloneDDS(rt/*) + iceoryx 共有メモリ。</text><text fill="#000000" font-family="Noto Sans CJK JP" font-size="13" lengthAdjust="spacingAndGlyphs" textLength="418" x="1623" y="368.9679">開発PCは eth0 の同一DDSドメインに参加して rt/lowcmd を直接送る。</text><text fill="#000000" font-family="Noto Sans CJK JP" font-size="13" lengthAdjust="spacingAndGlyphs" textLength="329" x="1623" y="387.7919">クラウド(MQTTS)/アプリ(WebRTC,BLE)は wlan0 経由。</text><!--MD5=[3080c69cec8b90d60d2fcf52523ff7f9]
link hwlidar to lidar--><path d="M85.12,204.0638 C101.95,204.0638 122.03,204.0638 140.55,204.0638 " fill="none" id="hwlidar-&gt;lidar" style="stroke: #A80036; stroke-width: 1.0;"/><polygon fill="#A80036" points="145.73,204.0638,136.73,200.0638,140.73,204.0638,136.73,208.0638,145.73,204.0638" style="stroke: #A80036; stroke-width: 1.0;"/><!--MD5=[9ec4cdc5ee2e218de91f6d7a9042976e]
link lidar to slam--><path d="M252.03,204.0638 C269.22,204.0638 288.74,204.0638 307.42,204.0638 " fill="none" id="lidar-&gt;slam" style="stroke: #A80036; stroke-width: 1.0;"/><polygon fill="#A80036" points="312.66,204.0638,303.66,200.0638,307.66,204.0638,303.66,208.0638,312.66,204.0638" style="stroke: #A80036; stroke-width: 1.0;"/><!--MD5=[c70307b023d7e8b0ff7cb7dd3ccf9eb2]
link slam to voxel--><path d="M459.15,204.3938 C476.88,204.4738 496.08,204.5638 514.56,204.6438 " fill="none" id="slam-&gt;voxel" style="stroke: #A80036; stroke-width: 1.0;"/><polygon fill="#A80036" points="519.76,204.6738,510.7715,200.6481,514.76,204.6596,510.7486,208.6481,519.76,204.6738" style="stroke: #A80036; stroke-width: 1.0;"/><!--MD5=[76f0327bb33ebde7eceadee8afd86b0c]
link hwcam to video--><path d="M76.79,129.0638 C97.19,129.0638 124.55,129.0638 148.12,129.0638 " fill="none" id="hwcam-&gt;video" style="stroke: #A80036; stroke-width: 1.0;"/><polygon fill="#A80036" points="153.39,129.0638,144.39,125.0638,148.39,129.0638,144.39,133.0638,153.39,129.0638" style="stroke: #A80036; stroke-width: 1.0;"/><!--MD5=[09f613a743de48bc94afd3e9ae20d320]
link hwuwb to utrack--><path d="M71.18,54.0638 C96.04,54.0638 134.65,54.0638 162.74,54.0638 " fill="none" id="hwuwb-&gt;utrack" style="stroke: #A80036; stroke-width: 1.0;"/><polygon fill="#A80036" points="167.85,54.0638,158.85,50.0638,162.85,54.0638,158.85,58.0638,167.85,54.0638" style="stroke: #A80036; stroke-width: 1.0;"/><!--MD5=[ea50cdaee72b3ac3fd0d880b72c789ca]
link voxel to obs--><path d="M693.11,207.5238 C711.5,208.0538 730.7,208.6038 748.32,209.1038 " fill="none" id="voxel-&gt;obs" style="stroke: #A80036; stroke-width: 1.0;"/><polygon fill="#A80036" points="753.74,209.2638,744.8583,205.0077,748.7421,209.1206,744.6291,213.0044,753.74,209.2638" style="stroke: #A80036; stroke-width: 1.0;"/><!--MD5=[5f91eb9201d1b02c8a8fdc86ae44b9c7]
link hwmcu to lowstate--><path d="M446.71,279.3338 C480.89,279.4938 523.28,279.6838 555.66,279.8338 " fill="none" id="hwmcu-&gt;lowstate" style="stroke: #A80036; stroke-width: 1.0;"/><polygon fill="#A80036" points="560.77,279.8638,551.793,275.8125,555.7701,279.8353,551.7473,283.8123,560.77,279.8638" style="stroke: #A80036; stroke-width: 1.0;"/><!--MD5=[4633552d2269758c6aee4e6688af3908]
link lowstate to rstate--><path d="M652.08,282.4138 C684.99,284.1438 729.87,286.5038 764.43,288.3238 " fill="none" id="lowstate-&gt;rstate" style="stroke: #A80036; stroke-width: 1.0;"/><polygon fill="#A80036" points="769.45,288.5838,760.6801,284.1019,764.4574,288.3128,760.2464,292.0901,769.45,288.5838" style="stroke: #A80036; stroke-width: 1.0;"/><!--MD5=[9c87bdb4045c9c4d6d46962497760a95]
link rstate to msw--><path d="M865.94,301.9138 C887.37,306.8138 913.11,312.7038 936.68,318.0938 " fill="none" id="rstate-&gt;msw" style="stroke: #A80036; stroke-width: 1.0;"/><polygon fill="#A80036" points="941.68,319.2338,933.7985,313.3277,936.8059,318.1189,932.0147,321.1263,941.68,319.2338" style="stroke: #A80036; stroke-width: 1.0;"/><!--MD5=[f9fffc548425198fa201856c584a118f]
link obs to msw--><path d="M849.12,231.1038 C882.72,253.0738 936.53,288.2838 971.7,311.2938 " fill="none" id="obs-&gt;msw" style="stroke: #A80036; stroke-width: 1.0;"/><polygon fill="#A80036" points="975.89,314.0338,970.5349,305.7681,971.7014,311.3034,966.1661,312.4699,975.89,314.0338" style="stroke: #A80036; stroke-width: 1.0;"/><!--MD5=[95caeb63cc64e593e9ec3a3930a056e9]
link remote to sbus--><path d="M429.65,375.0638 C463.27,375.0638 510.49,375.0638 547.54,375.0638 " fill="none" id="remote-&gt;sbus" style="stroke: #A80036; stroke-width: 1.0;"/><polygon fill="#A80036" points="552.92,375.0638,543.92,371.0638,547.92,375.0638,543.92,379.0638,552.92,375.0638" style="stroke: #A80036; stroke-width: 1.0;"/><!--MD5=[64bfa86b27ccdbe9119efbbf2f9a6805]
link sbus to apisport--><path d="M660.24,374.0538 C690.19,373.4838 727.73,372.7638 758.51,372.1738 " fill="none" id="sbus-&gt;apisport" style="stroke: #A80036; stroke-width: 1.0;"/><polygon fill="#A80036" points="763.78,372.0738,754.7016,368.2551,758.781,372.1741,754.862,376.2535,763.78,372.0738" style="stroke: #A80036; stroke-width: 1.0;"/><!--MD5=[f73bbaa426b61b11d845e44e13fdf23e]
link app to webrtc--><path d="M428.1,488.1138 C460.38,485.0138 505.89,480.6338 542.73,477.0938 " fill="none" id="app-&gt;webrtc" style="stroke: #A80036; stroke-width: 1.0;"/><polygon fill="#A80036" points="548.1,476.5838,538.7546,473.4753,543.1236,477.0686,539.5303,481.4376,548.1,476.5838" style="stroke: #A80036; stroke-width: 1.0;"/><!--MD5=[184b69bfcea73da5abf10288a42aa593]
link webrtc to api--><path d="M664.61,464.2338 C700.75,459.9138 746.48,454.4438 778.27,450.6338 " fill="none" id="webrtc-&gt;api" style="stroke: #A80036; stroke-width: 1.0;"/><polygon fill="#A80036" points="783.25,450.0438,773.8356,447.151,778.286,450.6429,774.7941,455.0934,783.25,450.0438" style="stroke: #A80036; stroke-width: 1.0;"/><!--MD5=[bbd32c2b1073335d7c734c85df9de89f]
link apisport to msw--><path d="M871.12,360.7038 C891.43,356.7138 914.97,352.0738 936.66,347.8038 " fill="none" id="apisport-&gt;msw" style="stroke: #A80036; stroke-width: 1.0;"/><polygon fill="#A80036" points="941.84,346.7938,932.2413,344.5882,936.9322,347.7497,933.7707,352.4406,941.84,346.7938" style="stroke: #A80036; stroke-width: 1.0;"/><!--MD5=[75f67c193aeba3102646aeaecb38c6e3]
link api to msw--><path d="M851.68,426.2938 C884.26,406.8838 933.94,377.2938 968.19,356.8838 " fill="none" id="api-&gt;msw" style="stroke: #A80036; stroke-width: 1.0;"/><polygon fill="#A80036" points="972.7,354.1938,962.92,355.356,968.4025,356.7495,967.009,362.232,972.7,354.1938" style="stroke: #A80036; stroke-width: 1.0;"/><!--MD5=[41f41cc2e4144638848f56860e293b9e]
link msw to sport--><path d="M1073.2,334.0638 C1091.2,334.0638 1110.75,334.0638 1128.76,334.0638 " fill="none" id="msw-&gt;sport" style="stroke: #A80036; stroke-width: 1.0;"/><polygon fill="#A80036" points="1133.79,334.0638,1124.79,330.0638,1128.79,334.0638,1124.79,338.0638,1133.79,334.0638" style="stroke: #A80036; stroke-width: 1.0;"/><!--MD5=[b24ed7a38b2eb81ffbe8947b47c6b4fa]
link sport to lowcmd--><path d="M1255.31,322.8938 C1315.75,311.6138 1407.96,294.3938 1463.7,283.9838 " fill="none" id="sport-&gt;lowcmd" style="stroke: #A80036; stroke-width: 1.0;"/><polygon fill="#A80036" points="1468.65,283.0638,1459.0638,280.8044,1463.7369,283.9922,1460.5492,288.6653,1468.65,283.0638" style="stroke: #A80036; stroke-width: 1.0;"/><!--MD5=[7d4de04ed1fb8b0327fef584b93677f5]
link devpc to lowcmd--><path d="M1251.63,227.3638 C1311.89,238.4238 1406.6,255.8138 1463.51,266.2538 " fill="none" id="devpc-&gt;lowcmd" style="stroke: #A80036; stroke-width: 1.0;"/><polygon fill="#A80036" points="1468.56,267.1838,1460.4406,261.6094,1463.6439,266.2719,1458.9814,269.4752,1468.56,267.1838" style="stroke: #A80036; stroke-width: 1.0;"/><text fill="#000000" font-family="Noto Sans CJK JP" font-size="13" lengthAdjust="spacingAndGlyphs" textLength="152" x="1286" y="212.1439">sport_mode を release 後</text><text fill="#000000" font-family="Noto Sans CJK JP" font-size="13" lengthAdjust="spacingAndGlyphs" textLength="52" x="1336" y="230.9679">直接送出</text><!--MD5=[b24ad295af6eb321674a5fb288828a9a]
link lowcmd to motor--><path d="M1556.26,275.0638 C1615,275.0638 1720.53,275.0638 1783.68,275.0638 " fill="none" id="lowcmd-&gt;motor" style="stroke: #A80036; stroke-width: 1.0;"/><polygon fill="#A80036" points="1788.91,275.0638,1779.91,271.0638,1783.91,275.0638,1779.91,279.0638,1788.91,275.0638" style="stroke: #A80036; stroke-width: 1.0;"/><!--MD5=[8efd728f891fe32cd8b39808aa566aac]
@startuml
title Go2 データフロー — 知覚 → 制御 → アクチュエータ (全て rt/* DDS + SHM)
skinparam shadowing false
skinparam defaultFontName "Noto Sans CJK JP"
left to right direction

actor "プロポ(SBUS)" as remote
actor "スマホアプリ" as app
actor "開発PC\n(go2-gait-runner)" as devpc

rectangle "LiDAR L1" as hwlidar
rectangle "カメラ" as hwcam
rectangle "UWB" as hwuwb
rectangle "IMU/関節 (MCU)" as hwmcu
rectangle "モータ MCU" as motor

component "unitree_lidar" as lidar
component "unitree_lidar_slam" as slam
component "voxel_height_mapping" as voxel
component "video_hub" as video
component "utrack" as utrack
component "obstacles_avoid" as obs
component "robot_state" as rstate
component "sbus_handle" as sbus
component "webrtc_bridge" as webrtc
component "motion_switcher" as msw
component "sport_mode\n(Legged_sport)" as sport

rectangle "rt/lowstate" as lowstate #FFFDE7
rectangle "rt/api/sport/*" as apisport #FFFDE7
rectangle "rt/api/*" as api #FFFDE7
rectangle "rt/lowcmd" as lowcmd #FFFDE7

hwlidar - -> lidar
lidar - -> slam
slam - -> voxel
hwcam - -> video
hwuwb - -> utrack
voxel - -> obs
hwmcu - -> lowstate
lowstate - -> rstate

rstate - -> msw
obs - -> msw
remote - -> sbus
sbus - -> apisport
app - -> webrtc
webrtc - -> api
apisport - -> msw
api - -> msw

msw - -> sport
sport - -> lowcmd
devpc - -> lowcmd : "sport_mode を release 後\n直接送出"
lowcmd - -> motor

note bottom
  結合は全て CycloneDDS(rt/*) + iceoryx 共有メモリ。
  開発PCは eth0 の同一DDSドメインに参加して rt/lowcmd を直接送る。
  クラウド(MQTTS)/アプリ(WebRTC,BLE)は wlan0 経由。
end note
@enduml

PlantUML version 1.2020.02(Sun Mar 01 19:22:07 JST 2020)
(GPL source distribution)
Java Runtime: OpenJDK Runtime Environment
JVM: OpenJDK 64-Bit Server VM
Java Version: 11.0.31+11-post-1ubuntu1-22.04.2-Ubuntu
Operating System: Linux
Default Encoding: UTF-8
Language: en
Country: US
--></g></svg>